<?xml version="1.0" encoding="UTF-8"?>
<!DOCTYPE svg PUBLIC "-//W3C//DTD SVG 1.1//EN" "http://www.w3.org/Graphics/SVG/1.1/DTD/svg11.dtd">
<svg version="1.1" xmlns="http://www.w3.org/2000/svg" xmlns:xlink="http://www.w3.org/1999/xlink" x="0" y="0" width="600" height="400" viewBox="0, 0, 600, 400">
  <defs>
    <clipPath id="Clip_1">
      <path d="M-50,-80 L640,-80 L640,437.5 L-50,437.5 z"/>
    </clipPath>
  </defs>

  <g id="Layer_4">
    <path d="M340.5,20.5 L340.5,320.5" fill-opacity="0" stroke="#813900" stroke-width="8" stroke-linecap="round"/>
    <path d="M200.5,120.5 L200.5,310.5" fill-opacity="0" stroke="#813900" stroke-width="8" stroke-linecap="round"/>
    <path d="M170.5,150.5 L250.5,150.5" fill-opacity="0" stroke="#813900" stroke-width="8" stroke-linecap="round"/>
    <path d="M300.5,60.5 L430.5,60.5" fill-opacity="0" stroke="#813900" stroke-width="8" stroke-linecap="round"/>
  </g>
  <g id="Layer_2">
    <path d="M56,190 L106,200 C106,200 106,290 166,300 C226,310 436,300 436,300 C436,300 476,290 476,240 C476,240 516,240 516,240 L506,280 L486,270 C486,270 466,360 426,360 C386,360 236,360 186,360 C126,360 96,340 86,210 L76,210 C76,210 76,230 66,230 C56,230 56,220 56,210 C56,200 56,190 56,190 z" fill="#502400"/>
    <path d="M60,190 L110,200 C110,200 110,290 170,300 C230,310 440,300 440,300 C440,300 480,290 480,240 C480,240 520,240 520,240 L510,280 L490,270 C490,270 470,360 430,360 C390,360 240,360 190,360 C130,360 100,340 90,210 L80,210 C80,210 80,230 70,230 C60,230 60,220 60,210 C60,200 60,190 60,190 z" fill="#813900"/>
    <path d="M510.494,280 L520.494,240 L490.494,250 C490.494,250 470.494,330 400.494,330 C330.494,330 190.494,350 190.494,350 C190.494,350 158.923,356.553 127.675,340.467 C127.675,340.467 140,360 190.494,360 C230,360 410.494,360 430.494,360 C450.494,360 480.494,330 490.494,270 C490.494,270 510.494,280 510.494,280 z" fill="#632D02"/>
  </g>
  <g id="Layer_6">
    <g>
      <g>
        <g>
          <path d="M170.5,280.5 L257.764,367.764" fill="#FFB630"/>
          <path d="M170.5,280.5 L257.764,367.764" fill-opacity="0" stroke="#331700" stroke-width="4"/>
        </g>
        <path d="M227.746,342.837 L232.837,337.746 C233.775,336.809 235.671,337.186 237.073,338.588 L263.728,365.243 C265.13,366.645 265.507,368.542 264.57,369.479 L259.479,374.57 C258.542,375.507 256.645,375.13 255.243,373.728 L228.588,347.073 C227.186,345.671 226.809,343.775 227.746,342.837 z" fill="#331700"/>
      </g>
      <g>
        <path d="M182,313.5 C175.649,313.5 170.5,308.351 170.5,302 C170.5,295.649 175.649,290.5 182,290.5 C188.351,290.5 193.5,295.649 193.5,302 C193.5,308.351 188.351,313.5 182,313.5 z" fill="#813900"/>
        <path d="M182,313.5 C175.649,313.5 170.5,308.351 170.5,302 C170.5,295.649 175.649,290.5 182,290.5 C188.351,290.5 193.5,295.649 193.5,302 C193.5,308.351 188.351,313.5 182,313.5 z" fill-opacity="0" stroke="#E9E9E9" stroke-width="3" stroke-linecap="round" stroke-linejoin="round"/>
      </g>
    </g>
    <g>
      <g>
        <g>
          <path d="M210.5,280.5 L297.764,367.764" fill="#FFB630"/>
          <path d="M210.5,280.5 L297.764,367.764" fill-opacity="0" stroke="#331700" stroke-width="4"/>
        </g>
        <path d="M267.746,342.837 L272.837,337.746 C273.775,336.809 275.671,337.186 277.073,338.588 L303.728,365.243 C305.13,366.645 305.507,368.542 304.57,369.479 L299.479,374.57 C298.542,375.507 296.645,375.13 295.243,373.728 L268.588,347.073 C267.186,345.671 266.809,343.775 267.746,342.837 z" fill="#331700"/>
      </g>
      <g>
        <path d="M222,313.5 C215.649,313.5 210.5,308.351 210.5,302 C210.5,295.649 215.649,290.5 222,290.5 C228.351,290.5 233.5,295.649 233.5,302 C233.5,308.351 228.351,313.5 222,313.5 z" fill="#813900"/>
        <path d="M222,313.5 C215.649,313.5 210.5,308.351 210.5,302 C210.5,295.649 215.649,290.5 222,290.5 C228.351,290.5 233.5,295.649 233.5,302 C233.5,308.351 228.351,313.5 222,313.5 z" fill-opacity="0" stroke="#E9E9E9" stroke-width="3" stroke-linecap="round" stroke-linejoin="round"/>
      </g>
    </g>
    <g>
      <g>
        <g>
          <path d="M250.5,280.5 L337.764,367.764" fill="#FFB630"/>
          <path d="M250.5,280.5 L337.764,367.764" fill-opacity="0" stroke="#331700" stroke-width="4"/>
        </g>
        <path d="M307.746,342.837 L312.837,337.746 C313.775,336.809 315.671,337.186 317.073,338.588 L343.728,365.243 C345.13,366.645 345.507,368.542 344.57,369.479 L339.479,374.57 C338.542,375.507 336.645,375.13 335.243,373.728 L308.588,347.073 C307.186,345.671 306.809,343.775 307.746,342.837 z" fill="#331700"/>
      </g>
      <g>
        <path d="M262,313.5 C255.649,313.5 250.5,308.351 250.5,302 C250.5,295.649 255.649,290.5 262,290.5 C268.351,290.5 273.5,295.649 273.5,302 C273.5,308.351 268.351,313.5 262,313.5 z" fill="#813900"/>
        <path d="M262,313.5 C255.649,313.5 250.5,308.351 250.5,302 C250.5,295.649 255.649,290.5 262,290.5 C268.351,290.5 273.5,295.649 273.5,302 C273.5,308.351 268.351,313.5 262,313.5 z" fill-opacity="0" stroke="#E9E9E9" stroke-width="3" stroke-linecap="round" stroke-linejoin="round"/>
      </g>
    </g>
    <g>
      <g>
        <g>
          <path d="M290.5,280.5 L377.764,367.764" fill="#FFB630"/>
          <path d="M290.5,280.5 L377.764,367.764" fill-opacity="0" stroke="#331700" stroke-width="4"/>
        </g>
        <path d="M347.746,342.837 L352.837,337.746 C353.775,336.809 355.671,337.186 357.073,338.588 L383.728,365.243 C385.13,366.645 385.507,368.542 384.57,369.479 L379.479,374.57 C378.542,375.507 376.645,375.13 375.243,373.728 L348.588,347.073 C347.186,345.671 346.809,343.775 347.746,342.837 z" fill="#331700"/>
      </g>
      <g>
        <path d="M302,313.5 C295.649,313.5 290.5,308.351 290.5,302 C290.5,295.649 295.649,290.5 302,290.5 C308.351,290.5 313.5,295.649 313.5,302 C313.5,308.351 308.351,313.5 302,313.5 z" fill="#813900"/>
        <path d="M302,313.5 C295.649,313.5 290.5,308.351 290.5,302 C290.5,295.649 295.649,290.5 302,290.5 C308.351,290.5 313.5,295.649 313.5,302 C313.5,308.351 308.351,313.5 302,313.5 z" fill-opacity="0" stroke="#E9E9E9" stroke-width="3" stroke-linecap="round" stroke-linejoin="round"/>
      </g>
    </g>
    <g>
      <g>
        <g>
          <path d="M330.5,280.5 L417.764,367.764" fill="#FFB630"/>
          <path d="M330.5,280.5 L417.764,367.764" fill-opacity="0" stroke="#331700" stroke-width="4"/>
        </g>
        <path d="M387.746,342.837 L392.837,337.746 C393.775,336.809 395.671,337.186 397.073,338.588 L423.728,365.243 C425.13,366.645 425.507,368.542 424.57,369.479 L419.479,374.57 C418.542,375.507 416.645,375.13 415.243,373.728 L388.588,347.073 C387.186,345.671 386.809,343.775 387.746,342.837 z" fill="#331700"/>
      </g>
      <g>
        <path d="M342,313.5 C335.649,313.5 330.5,308.351 330.5,302 C330.5,295.649 335.649,290.5 342,290.5 C348.351,290.5 353.5,295.649 353.5,302 C353.5,308.351 348.351,313.5 342,313.5 z" fill="#813900"/>
        <path d="M342,313.5 C335.649,313.5 330.5,308.351 330.5,302 C330.5,295.649 335.649,290.5 342,290.5 C348.351,290.5 353.5,295.649 353.5,302 C353.5,308.351 348.351,313.5 342,313.5 z" fill-opacity="0" stroke="#E9E9E9" stroke-width="3" stroke-linecap="round" stroke-linejoin="round"/>
      </g>
    </g>
    <g>
      <g>
        <g>
          <path d="M370.5,280.5 L457.764,367.764" fill="#FFB630"/>
          <path d="M370.5,280.5 L457.764,367.764" fill-opacity="0" stroke="#331700" stroke-width="4"/>
        </g>
        <path d="M427.746,342.837 L432.837,337.746 C433.775,336.809 435.671,337.186 437.073,338.588 L463.728,365.243 C465.13,366.645 465.507,368.542 464.57,369.479 L459.479,374.57 C458.542,375.507 456.645,375.13 455.243,373.728 L428.588,347.073 C427.186,345.671 426.809,343.775 427.746,342.837 z" fill="#331700"/>
      </g>
      <g>
        <path d="M382,313.5 C375.649,313.5 370.5,308.351 370.5,302 C370.5,295.649 375.649,290.5 382,290.5 C388.351,290.5 393.5,295.649 393.5,302 C393.5,308.351 388.351,313.5 382,313.5 z" fill="#813900"/>
        <path d="M382,313.5 C375.649,313.5 370.5,308.351 370.5,302 C370.5,295.649 375.649,290.5 382,290.5 C388.351,290.5 393.5,295.649 393.5,302 C393.5,308.351 388.351,313.5 382,313.5 z" fill-opacity="0" stroke="#E9E9E9" stroke-width="3" stroke-linecap="round" stroke-linejoin="round"/>
      </g>
    </g>
  </g>
  <g id="Layer_3">
    <g>
      <path d="M433.077,60 C433.077,60 382.308,76.923 382.308,144.615 C382.308,212.308 450,229.231 450,229.231 C450,229.231 382.308,212.308 331.538,212.308 C280.769,212.308 280.769,229.231 280.769,229.231 C280.769,229.231 230,195.385 230,144.615 C230,93.846 297.692,60 297.692,60 C297.692,60 314.615,76.923 348.462,76.923 C382.308,76.923 433.077,60 433.077,60 z" fill="#F8F9FA"/>
      <path d="M230,144.615 C230.179,150.411 229.956,147.766 230.54,152.56 C234.387,184.155 255.344,211.127 280.769,229.231 C280.769,229.231 280.769,212.308 331.538,212.308 C382.308,212.308 450,229.231 450,229.231 C423.732,221.787 399.305,203.337 388.797,177.718 C386.042,178.599 383.322,179.6 380.53,180.36 C352.595,187.969 322.921,186.514 294.891,180.259 C272.117,174.64 249.771,166.255 230.54,152.56" fill="#E9E9E9"/>
    </g>
    <g>
      <path d="M250,150 C250,150 220,160 220,200 C220,240 260,250 260,250 C260,250 220,240 190,240 C160,240 160,250 160,250 C160,250 130,230 130,200 C130,170 170,150 170,150 C170,150 180,160 200,160 C220,160 250,150 250,150 z" fill="#F8F9FA"/>
      <path d="M130,200 C130.106,203.424 129.974,201.862 130.319,204.695 C132.592,223.364 144.976,239.302 160,250 C160,250 160,240 190,240 C220,240 260,250 260,250 C244.478,245.602 230.044,234.699 223.835,219.561 C222.206,220.081 220.599,220.673 218.95,221.122 C202.442,225.618 184.908,224.758 168.345,221.062 C154.887,217.742 141.683,212.787 130.319,204.695" fill="#E9E9E9"/>
    </g>
  </g>
</svg>
